<?xml version="1.0" encoding="UTF-8"?>
<svg id="Layer_1" data-name="Layer 1" xmlns="http://www.w3.org/2000/svg" version="1.1" viewBox="0 0 800 800">
  <defs>
    <style>
      .cls-1 {
        fill: #c6ad5d;
        stroke-width: 0px;
      }
    </style>
  </defs>
  <path class="cls-1" d="M788.3,251.7l-120-120c-7.5-7.5-17.7-11.7-28.3-11.7H160c-10.6,0-20.8,4.2-28.3,11.7L11.7,251.7c-15.6,15.6-15.6,40.9,0,56.6l360,360c7.8,7.8,18,11.7,28.3,11.7s20.5-3.9,28.3-11.7l360-360c15.6-15.6,15.6-40.9,0-56.6ZM611.7,160l-91.7,91.7-91.7-91.7h183.4ZM471.7,260h-143.4l71.7-71.7,71.7,71.7ZM371.7,160l-91.7,91.7-91.7-91.7h183.4ZM145.9,174.1l85.9,85.9H60l85.9-85.9ZM60,300h205.6l102.8,308.4L60,300ZM400,576.7l-92.2-276.7h184.5l-92.2,276.7ZM431.6,608.4l102.8-308.4h205.6l-308.4,308.4ZM568.3,260l85.9-85.9,85.9,85.9h-171.7Z"/>
</svg>